<svg width="48" height="59" viewBox="0 0 48 59" fill="none" xmlns="http://www.w3.org/2000/svg">
<path d="M29.8306 35.4704C29.8306 44.3118 24.5387 49.9935 16.5178 49.9935C8.49686 49.9935 1.99463 43.4913 1.99463 35.4704C1.99463 27.4495 8.49686 20.9473 16.5178 20.9473C24.5387 20.9473 29.8306 27.8556 29.8306 35.4704Z" fill="#9AC4E3"/>
<path d="M23.6907 0.207209C20.2541 0.877368 17.3307 3.78139 16.5273 7.35557C16.1703 8.89694 16.2372 12.4488 16.6389 13.8338C17.2191 15.7996 17.6878 16.4921 20.1202 19.0834C23.0882 22.2331 23.9808 23.3277 25.5652 25.7626C27.1943 28.2645 28.5109 31.4813 28.8456 33.7375C29.292 36.8426 28.4216 39.4339 26.1454 41.7347C21.2136 46.6716 14.2735 46.5822 8.38209 41.489C6.52988 39.903 4.29831 36.3958 3.24947 33.4694L2.51305 31.392L1.84358 32.8216C-1.50379 39.9477 -0.27642 46.7833 5.39178 52.4573C9.31935 56.3889 13.9164 58.4887 19.4061 58.8461C29.6044 59.5163 39.2225 53.82 44.1542 44.192C47.0776 38.518 48.3273 32.0398 47.7248 25.6733C47.3008 20.9821 46.3412 17.6537 44.2658 13.4987C40.4275 5.85888 35.6296 1.61454 29.3812 0.3189C27.5736 -0.0608572 25.2528 -0.105532 23.6907 0.207209Z" fill="#1F65B1"/>
</svg>
