<svg width="94" height="115" viewBox="0 0 94 115" fill="none" xmlns="http://www.w3.org/2000/svg">
<path d="M58.193 69.2942C58.193 86.5419 47.8696 97.6256 32.2226 97.6256C16.5756 97.6256 3.89124 84.9412 3.89124 69.2942C3.89124 53.6473 16.5756 40.9629 32.2226 40.9629C47.8696 40.9629 58.193 54.4396 58.193 69.2942Z" fill="#9AC4E3"/>
<path d="M46.2152 0.503761C39.5111 1.81109 33.8083 7.47618 32.2411 14.4486C31.5446 17.4555 31.6752 24.3843 32.4588 27.0861C33.5906 30.921 34.5048 32.2719 39.2499 37.3269C45.0398 43.4713 46.7811 45.6066 49.872 50.3566C53.0499 55.2373 55.6183 61.5125 56.2713 65.9138C57.142 71.9711 55.4442 77.0261 51.0038 81.5146C41.383 91.1453 27.8443 90.971 16.3516 81.0353C12.7383 77.9413 8.38503 71.0996 6.33898 65.3909L4.90239 61.3382L3.5964 64.1271C-2.93355 78.0284 -0.539232 91.3632 10.5181 102.432C18.18 110.102 27.1478 114.198 37.8569 114.895C57.7514 116.202 76.5142 105.09 86.135 86.3082C91.8378 75.2394 94.2756 62.6019 93.1002 50.1823C92.2731 41.031 90.4012 34.5379 86.3526 26.4325C78.865 11.5289 69.5054 3.24915 57.3161 0.721645C53.79 -0.0191754 49.2625 -0.106326 46.2152 0.503761Z" fill="#1F65B1"/>
</svg>
