<svg width="335" height="46" viewBox="0 0 335 46" fill="none" xmlns="http://www.w3.org/2000/svg">
<path d="M136.125 5.73756C136.125 7.99437 136.426 8.25766 137.818 7.05403C139.021 6.00086 139.774 6.22654 140.15 7.73107C140.338 8.48334 140.827 9.12277 141.391 9.38606C142.82 10.0255 142.52 10.4392 140.639 10.4392C138.871 10.4392 138.833 10.4769 138.42 12.3951C138.232 13.2602 138.307 13.4483 138.909 13.4483C139.285 13.4483 139.811 13.185 140.075 12.8841C140.338 12.5832 140.94 12.3199 141.429 12.3199C142.294 12.3199 142.331 12.4327 142.331 15.1409V17.9619H143.46H144.588V15.1409C144.588 12.4327 144.626 12.3199 145.491 12.3199C145.98 12.3199 146.582 12.5832 146.845 12.8841C147.108 13.185 147.635 13.4483 148.049 13.4483C148.651 13.4483 148.763 13.2602 148.575 12.5832C148.462 12.1318 148.35 11.4548 148.35 11.0787C148.35 10.5521 148.011 10.4392 146.469 10.4392C144.739 10.4392 144.588 10.364 144.588 9.53652C144.588 8.89709 144.325 8.55857 143.686 8.40811C142.783 8.18243 142.181 7.2421 142.557 6.64029C142.896 6.03847 144.062 6.26415 144.776 7.05403C145.905 8.29527 146.318 7.95675 146.318 5.73756C146.318 3.5936 145.867 3.14224 144.964 4.23303C144.626 4.64678 143.686 4.79723 141.391 4.79723C139.097 4.79723 138.156 4.64678 137.818 4.23303C137.555 3.93212 137.066 3.66883 136.727 3.66883C136.238 3.66883 136.125 4.08257 136.125 5.73756Z" fill="white"/>
<path d="M197.999 5.73756C197.999 7.01642 198.187 7.27971 199.692 8.3705C200.369 8.85948 200.294 8.89709 198.488 8.9347C196.683 8.9347 196.495 9.00993 196.495 9.7622C196.495 10.2512 196.382 11.0034 196.269 11.4548C195.968 12.5832 196.946 12.6208 197.999 11.5676C198.413 11.1539 199.09 10.8154 199.504 10.8154C200.218 10.8154 200.256 11.0787 200.256 14.3886V17.9619H201.384H202.513V14.3886C202.513 11.0787 202.55 10.8154 203.265 10.8154C203.679 10.8154 204.356 11.1539 204.769 11.5676C205.898 12.696 206.725 12.5456 206.424 11.2667C205.898 8.89709 205.936 8.9347 204.168 8.9347C202.663 8.9347 202.513 8.85948 202.513 7.99437C202.513 7.35494 202.325 7.05403 201.836 7.05403C200.895 7.05403 200.256 6.33938 200.256 5.2862C200.256 4.57155 200.068 4.4211 199.127 4.4211C198.074 4.4211 197.999 4.53394 197.999 5.73756Z" fill="white"/>
<path d="M127.286 5.24859C125.895 6.00086 125.744 8.29527 127.061 9.12277C128.377 9.98788 127.963 10.4392 125.932 10.4392C124.616 10.4392 124.277 10.5521 124.277 11.0787C124.277 11.4548 124.164 12.1318 124.052 12.5832C123.751 13.7116 124.841 13.7492 126.007 12.6584C127.512 11.2667 128.039 11.9062 128.039 15.1409V17.9619H129.167H130.295V15.1409C130.295 11.9062 130.822 11.2667 132.327 12.6584C133.568 13.8244 134.508 13.7116 134.207 12.3951C133.793 10.5145 133.718 10.4392 132.251 10.4392C130.333 10.4392 130.107 10.1383 131.236 9.08516C132.289 8.10721 132.515 6.30176 131.612 5.5495C130.784 4.87246 128.34 4.722 127.286 5.24859ZM130.032 6.82835C130.145 7.12926 130.032 7.65585 129.769 7.99437C129.355 8.59618 129.242 8.59618 128.678 8.03198C128.34 7.69346 128.151 7.16687 128.264 6.86597C128.565 6.15131 129.769 6.15131 130.032 6.82835Z" fill="white"/>
<path d="M47.5458 6.15131C47.5458 6.75313 47.0568 7.54301 46.2293 8.33289L44.9128 9.57413V13.7868V17.9619H46.0412H47.1696V14.2382C47.1696 11.342 47.3201 10.364 47.7715 9.91265C48.0724 9.57413 48.4861 9.31084 48.6742 9.31084C48.8622 9.31084 49.276 9.57413 49.5769 9.91265C50.0283 10.364 50.1787 11.342 50.1787 14.2382V17.9619H52.8117C55.9336 17.9619 56.9491 17.2849 56.9491 15.1785C56.9491 13.5988 56.2721 13.0346 54.1281 12.7713C52.4355 12.5832 52.4355 12.5832 52.4355 11.0787C52.4355 9.87504 52.2098 9.34845 51.1191 8.33289C50.2916 7.54301 49.8026 6.75313 49.8026 6.15131C49.8026 5.32382 49.6521 5.17336 48.6742 5.17336C47.6962 5.17336 47.5458 5.32382 47.5458 6.15131ZM54.1281 14.7272C54.7299 15.1785 54.7675 15.329 54.3538 15.8556C53.3759 17.0216 52.0218 16.1941 52.586 14.7648C52.8493 14.0501 53.2254 14.0501 54.1281 14.7272Z" fill="white"/>
<path d="M303.693 6.30243C303.693 6.90424 303.505 7.43083 303.317 7.43083C303.091 7.43083 302.489 7.84458 302 8.37117C301.135 9.19866 301.06 9.57479 301.06 12.6215C301.06 15.4049 301.173 16.1571 301.812 16.947C303.317 18.8277 307.304 18.5644 308.395 16.458C309.147 15.0287 309.147 10.3647 308.395 8.93537C308.094 8.33355 307.492 7.76935 307.078 7.6189C306.552 7.46844 306.326 7.0547 306.326 6.26482C306.326 5.24926 306.213 5.17403 305.009 5.17403C303.806 5.17403 303.693 5.24926 303.693 6.30243ZM306.326 10.2894C306.552 10.816 306.702 11.9068 306.702 12.6967C306.702 14.8783 306.138 16.0819 305.085 16.0819C303.693 16.0819 303.317 15.3673 303.317 12.6967C303.317 10.0262 303.693 9.3115 305.085 9.3115C305.687 9.3115 306.1 9.61241 306.326 10.2894Z" fill="white"/>
<path d="M311.366 6.94119C311.479 7.88153 311.855 9.00993 312.193 9.34845C312.682 9.91265 312.795 10.8154 312.758 14.0125L312.682 17.9619H313.773H314.901L315.052 14.3886C315.165 10.364 315.729 9.27322 317.196 10.0255C317.911 10.4392 317.986 10.7778 317.986 14.2006V17.9619H319.302H320.619V14.5767C320.619 9.00993 319.566 7.54301 315.842 7.91914L313.848 8.14482V6.64029C313.848 5.21098 313.811 5.17336 312.494 5.17336H311.103L311.366 6.94119Z" fill="white"/>
<path d="M95.0892 6.07608C93.1333 6.94119 92.8324 9.34845 94.3746 12.2823C94.9012 13.2602 95.4278 14.9528 95.5782 16.0436C95.8039 17.8867 95.8415 17.9619 96.9323 17.9619H98.0231L97.8726 15.4794C97.7222 13.1098 97.7598 12.9969 98.7754 12.4704C100.092 11.7933 100.581 10.853 100.581 9.12277C100.581 7.27971 100.092 6.45222 98.6625 5.96324C97.1204 5.43666 96.5186 5.47427 95.0892 6.07608ZM98.0607 8.25766C98.5497 9.00993 98.0983 10.7778 97.346 11.0787C96.1424 11.53 95.2021 8.70902 96.2929 7.91914C97.0828 7.35494 97.5717 7.43017 98.0607 8.25766Z" fill="white"/>
<path d="M179.682 6.0764C177.387 7.12958 177.312 11.0038 179.569 12.7716L180.697 13.6367L180.133 15.4797C179.381 17.9622 179.381 18.0375 180.772 17.887C181.788 17.8118 182.014 17.5861 182.239 16.6082C182.352 15.9687 183.067 14.1633 183.819 12.6587C184.609 11.1166 185.211 9.42399 185.211 8.85979C185.211 6.52776 182.164 4.98561 179.682 6.0764ZM181.976 7.65616C183.029 8.06991 182.653 8.93502 181.449 8.93502C180.246 8.93502 180.058 8.5965 180.772 7.88184C181.299 7.35526 181.224 7.35526 181.976 7.65616ZM182.315 9.91297C182.427 10.0634 182.39 10.4772 182.164 10.8909C181.788 11.6056 181.713 11.6056 181.036 10.9661C180.66 10.6276 180.434 10.1763 180.547 10.0258C180.772 9.64967 181.976 9.57445 182.315 9.91297Z" fill="white"/>
<path d="M227.15 5.81279C225.796 6.15131 224.705 7.46778 224.705 8.78425C224.705 9.46129 225.194 11.0787 225.833 12.3951C226.548 13.8621 226.962 15.3666 226.962 16.3445C226.962 17.8867 226.999 17.9619 228.09 17.9619C229.106 17.9619 229.218 17.8491 229.218 16.8335C229.218 15.4794 229.632 15.4418 231.099 16.5326C232.491 17.5482 232.754 17.3225 232.416 15.3666C232.152 13.8621 232.115 13.8244 230.723 13.8244C228.767 13.8244 228.579 13.2979 230.159 12.3575C233.356 10.4769 232.604 6.30176 228.993 5.77518C228.391 5.69995 227.563 5.69995 227.15 5.81279ZM229.143 7.88153C230.084 8.82186 229.444 11.1915 228.24 11.1915C227.977 11.1915 227.601 10.6649 227.375 10.0255C226.849 8.55857 226.849 8.70902 227.563 8.03198C228.278 7.31733 228.541 7.27971 229.143 7.88153Z" fill="white"/>
<path d="M241.066 5.96324C238.772 6.64028 238.358 9.00993 239.976 12.0942C240.502 13.0722 241.029 14.8024 241.142 15.9308C241.367 17.8867 241.405 17.9619 242.496 17.9619H243.587L243.436 15.4794C243.286 13.0722 243.323 12.9969 244.376 12.4704C246.934 11.1163 246.972 7.12926 244.414 6.07608C243.022 5.47427 242.684 5.47427 241.066 5.96324ZM243.662 8.29527C244.151 9.08515 243.549 10.9658 242.721 11.1163C242.383 11.1539 241.932 10.8154 241.706 10.2512C241.104 8.97231 241.142 8.74663 241.856 7.99437C242.571 7.31733 243.098 7.39255 243.662 8.29527Z" fill="white"/>
<path d="M59.6947 6.4903C58.2278 7.12973 57.7012 8.07007 57.7012 9.98835C57.7012 12.3204 58.6791 13.2607 61.1616 13.2607C62.4781 13.2607 63.5689 13.035 64.2083 12.5837C65.111 11.9819 65.2238 11.7186 65.2238 9.68744C65.2238 7.69393 65.2991 7.43064 65.9761 7.43064C66.6155 7.43064 66.7284 7.69393 66.7284 9.08563C66.7284 11.0039 67.443 11.9442 68.8347 11.9442C70.0007 11.9442 70.0007 12.4708 68.6091 15.5175L67.4807 18L68.8723 17.8872C70.2264 17.7743 70.264 17.7367 71.919 13.8249C75.1538 6.1894 75.0033 5.9261 66.8036 5.9261C62.6285 5.96372 60.5598 6.11417 59.6947 6.4903ZM71.0163 7.91961C71.5429 8.29575 71.5805 8.59665 71.2796 9.42415C70.8282 10.5902 70.5649 10.6654 69.5494 9.95074C69.0604 9.5746 68.9476 9.16085 69.1356 8.4462C69.3989 7.3178 70.0007 7.16735 71.0163 7.91961ZM62.5909 9.49938C62.5909 11.3424 61.9139 12.0195 60.7479 11.3048C59.3562 10.4397 60.2213 7.80677 61.9139 7.80677C62.4781 7.80677 62.5909 8.10768 62.5909 9.49938Z" fill="white"/>
<path d="M75.7559 7.0548C75.7559 8.63456 76.5081 10.0639 77.4485 10.2896C78.2007 10.4776 78.3136 10.8161 78.464 13.2986C78.6145 15.5554 78.8402 16.2701 79.5172 17.0223C80.608 18.1884 82.1501 18.5269 83.8427 17.9627C85.9115 17.2856 86.2876 16.1572 86.2876 10.6281V5.9264H85.1592H84.0308V10.0263C84.0308 14.8408 83.6923 16.082 82.3758 16.082C81.2098 16.082 81.0217 15.5178 81.0217 11.9822V9.08592L79.8181 8.7474C78.8025 8.44649 78.5392 8.14559 78.464 7.13003C78.3512 6.03924 78.2383 5.9264 77.0347 5.9264C75.8687 5.9264 75.7559 6.03924 75.7559 7.0548Z" fill="white"/>
<path d="M102.837 6.86644C102.837 7.91961 104.041 9.31131 104.906 9.31131C105.32 9.31131 105.432 9.5746 105.244 10.2516C105.056 11.0791 105.132 11.192 105.997 11.192C107.276 11.192 107.238 11.6433 105.658 15.1038L104.379 17.9624H105.696C106.937 17.9624 107.087 17.8495 107.953 15.856C108.705 14.1258 108.968 13.8249 109.42 14.201C109.72 14.4267 110.097 15.3294 110.247 16.1946C110.548 17.6239 110.661 17.7743 111.827 17.8872L113.068 18L112.805 16.6083C112.466 14.6524 111.714 13.2983 110.548 12.5461C109.645 11.9442 109.608 11.869 110.172 10.8158L110.774 9.68744H109.42C108.028 9.68744 107.877 9.49938 108.479 8.55904C108.78 8.10768 108.554 7.95723 107.238 7.80677C106.072 7.65632 105.545 7.39303 105.282 6.7536C105.019 6.1894 104.605 5.9261 103.89 5.9261C103.025 5.9261 102.837 6.07656 102.837 6.86644Z" fill="white"/>
<path d="M117.431 6.48983C116.04 7.27971 115.212 8.97232 114.986 11.6429L114.761 13.8244H116.341H117.883V15.8932V17.9619H119.199H120.516V14.9528V11.9438H118.823H117.168L117.394 10.7025C117.807 8.3705 120.102 6.97881 121.268 8.3705C121.531 8.67141 122.02 8.9347 122.396 8.9347C122.923 8.9347 122.998 8.70902 122.81 7.50539L122.584 6.1137L120.516 6.03847C119.237 5.96325 118.071 6.15131 117.431 6.48983Z" fill="white"/>
<path d="M153.277 6.4146C151.66 7.2421 150.907 8.67141 150.719 11.342L150.494 13.8244H152.073H153.616V15.8932C153.616 17.9243 153.616 17.9619 154.744 17.9619H155.872V14.9528V11.9438H154.33C152.788 11.9438 152.788 11.9438 153.014 10.7401C153.465 8.48334 156.136 6.79074 156.775 8.3705C156.888 8.67141 157.339 8.9347 157.753 8.9347C158.543 8.9347 158.769 7.8063 158.28 6.52744C157.979 5.77518 154.631 5.69995 153.277 6.4146Z" fill="white"/>
<path d="M164.899 7.43114C164.899 9.0109 165.877 10.4402 166.968 10.4402C167.419 10.4402 167.532 10.9668 167.532 12.8851C167.532 15.9694 168.209 17.3611 169.977 17.9629C171.67 18.5271 173.212 18.1886 174.34 16.9849C175.168 16.0822 175.243 15.6685 175.356 10.9668L175.506 5.9266H174.152H172.798V10.4026C172.798 12.8851 172.685 15.1419 172.572 15.4804C172.459 15.8189 171.933 16.0822 171.444 16.0822C170.24 16.0822 169.789 14.8786 169.789 11.6438C169.789 9.16136 169.751 9.12374 168.548 8.55954C167.683 8.14579 167.306 7.69443 167.231 6.94217C167.118 6.07706 166.93 5.9266 165.99 5.9266C164.974 5.9266 164.899 6.00183 164.899 7.43114Z" fill="white"/>
<path d="M189.649 6.48983C188.257 7.27971 187.43 8.97232 187.204 11.6429L186.979 13.8244H188.558H190.1V15.8932V17.9619H191.417H192.733V14.9528V11.9438H191.041H189.386L189.611 10.7025C190.025 8.3705 192.32 6.97881 193.486 8.3705C193.749 8.67141 194.238 8.9347 194.614 8.9347C195.141 8.9347 195.216 8.70902 195.028 7.50539L194.802 6.1137L192.733 6.03847C191.455 5.96325 190.288 6.15131 189.649 6.48983Z" fill="white"/>
<path d="M216.054 6.1137C216.054 6.26415 216.317 6.82835 216.618 7.43017C217.145 8.44573 217.107 8.52095 216.242 9.08516C214.775 10.0631 213.609 12.696 212.894 16.7207L212.706 17.9619H215.114C217.897 17.9619 219.063 17.2096 219.063 15.4042C219.063 14.0125 218.574 13.3355 217.145 12.8841L215.941 12.4704L216.919 11.3796L217.897 10.2512L219.665 14.0877C221.433 17.8867 221.47 17.9619 222.749 17.9619C223.426 17.9619 223.953 17.8115 223.877 17.6234C223.84 17.4729 222.599 14.7648 221.169 11.6053C218.574 5.92563 218.574 5.92563 217.333 5.92563C216.618 5.92563 216.054 6.00086 216.054 6.1137ZM216.731 15.4794C216.58 16.6454 215.302 16.7583 215.302 15.5923C215.302 14.5015 215.565 14.2006 216.317 14.4639C216.618 14.5767 216.806 15.0281 216.731 15.4794Z" fill="white"/>
<path d="M251.222 6.64029C249.153 7.58062 248.702 8.70902 248.476 13.7116L248.288 17.9619H249.492H250.658V14.4263C250.658 9.31084 251.41 7.84391 253.968 7.8063H255.172V12.8841V17.9619H256.112H257.015L257.127 12.9593L257.24 7.99437H258.933C261.227 7.99437 261.566 8.74663 261.566 13.8997V17.9619H263.635C265.214 17.9619 265.891 17.7738 266.456 17.2096C267.96 15.7051 266.982 13.4483 264.838 13.4483C263.86 13.4483 263.823 13.3731 263.823 11.3796C263.823 9.00993 263.07 6.90358 262.055 6.37699C261.679 6.18892 259.422 6.00086 257.052 6.00086C253.667 5.96324 252.388 6.1137 251.222 6.64029ZM264.876 15.0281C265.139 15.2914 265.177 15.6675 264.913 16.1565C264.349 17.172 263.823 16.984 263.823 15.7051C263.823 14.5015 264.161 14.3134 264.876 15.0281Z" fill="white"/>
<path d="M271.007 6.41461C269.389 7.2421 268.637 8.67141 268.449 11.342L268.223 13.8244H269.803H271.345V15.8932C271.345 17.9243 271.345 17.9619 272.474 17.9619H273.602V14.9528V11.9438H272.098C270.443 11.9438 270.33 11.6805 271.007 9.72458C271.609 7.95675 273.978 7.05403 274.505 8.3705C274.806 9.16038 276.235 9.08516 276.235 8.25766C276.197 6.26415 275.859 5.92563 273.828 5.92563C272.775 5.92563 271.496 6.15131 271.007 6.41461Z" fill="white"/>
<path d="M284.66 6.52747C282.667 7.50542 281.915 10.6273 283.306 12.3199C284.247 13.4859 286.88 13.7116 288.647 12.8089C289.889 12.1695 289.964 11.9814 290.152 9.87506C290.302 8.10723 290.49 7.58064 291.017 7.50542C291.544 7.39258 291.656 7.65587 291.656 9.04757C291.656 10.853 292.446 11.9438 293.8 11.9438C294.214 11.9438 294.628 12.0566 294.778 12.1695C294.891 12.2823 294.477 13.5612 293.876 14.9529C293.274 16.3822 292.785 17.661 292.785 17.7739C292.785 17.8867 293.311 17.9619 293.989 17.8867C295.155 17.7739 295.267 17.5858 296.998 13.6364C298.878 9.27325 299.179 7.50542 298.201 6.52747C297.374 5.66236 286.391 5.66236 284.66 6.52747ZM296.132 7.95678C296.621 8.52098 296.095 10.4393 295.455 10.4393C294.966 10.4393 293.876 9.31086 294.026 9.00995C294.101 8.8595 294.289 8.44575 294.402 8.06962C294.703 7.31735 295.531 7.24212 296.132 7.95678ZM287.519 9.68699C287.519 11.4548 287.444 11.5677 286.579 11.5677C285.187 11.5677 284.548 10.0631 285.413 8.74666C285.751 8.22007 286.353 7.80632 286.767 7.80632C287.406 7.80632 287.519 8.06962 287.519 9.68699Z" fill="white"/>
<path d="M326.449 6.56506C327.088 8.10721 327.013 8.48334 325.734 9.83742C324.418 11.1915 323.628 13.2226 323.064 16.5326L322.838 17.9619H325.245C327.991 17.9619 329.27 17.1344 329.27 15.4042C329.27 14.0501 328.894 13.5611 327.427 12.9593L326.185 12.4327L327.126 11.342L328.066 10.2512L329.834 14.1253C331.602 17.8867 331.677 17.9619 332.881 17.9619H334.16L333.257 15.9684C332.768 14.9152 331.564 12.2071 330.549 9.95026C328.781 5.96324 328.743 5.92563 327.464 5.92563C326.374 5.92563 326.223 6.03847 326.449 6.56506ZM326.938 15.4794C326.787 16.6454 325.508 16.7583 325.508 15.5923C325.508 14.5015 325.772 14.2006 326.524 14.4639C326.825 14.5767 327.013 15.0281 326.938 15.4794Z" fill="white"/>
<path d="M193.824 22.5898C189.01 23.9439 185.925 28.6456 186.489 33.8362C186.753 36.582 187.731 38.5003 189.724 40.3057C191.981 42.3368 193.561 42.9386 196.871 42.9386C200.444 42.9763 203.378 41.6974 205.108 39.3278L206.274 37.748L203.528 36.1682L200.82 34.5885L199.88 35.7169C199.203 36.5068 198.488 36.8829 197.397 37.0333C196.043 37.2214 195.667 37.071 194.576 36.093C193.373 35.0398 193.297 34.7765 193.297 32.6326C193.297 30.4886 193.373 30.2253 194.539 29.2098C196.231 27.7052 198.037 27.7052 199.617 29.285L200.745 30.451L202.099 29.6611C202.851 29.2098 204.017 28.5703 204.694 28.2318C206.161 27.4795 206.161 27.2162 204.92 25.5989C202.889 22.8907 197.698 21.499 193.824 22.5898Z" fill="white"/>
<path d="M244.452 22.4381C241.405 23.1904 238.998 25.1463 237.456 28.1178C236.402 30.1865 236.252 34.6625 237.192 36.8064C239.562 42.2228 246.37 44.5924 251.862 41.9219C253.705 41.0191 256.714 38.1605 256.262 37.7092C256.187 37.6716 254.946 36.9193 253.517 36.0918L250.959 34.5873L249.906 35.7909C249.003 36.7688 248.552 36.9569 247.16 36.9569C245.129 36.9569 244.076 36.1294 243.436 34.0607C242.157 29.6975 246.408 26.3875 249.68 29.2462L250.959 30.3746L253.629 28.8324L256.3 27.2903L255.51 26.1619C253.253 23.0399 248.589 21.4602 244.452 22.4381Z" fill="white"/>
<path d="M50.4418 23.0027C47.6208 24.0559 46.041 26.3127 46.041 29.2465C46.041 32.5565 47.6584 33.9482 53.1876 35.4151C57.2122 36.5059 57.8516 36.9197 56.7609 37.7472C55.7077 38.537 53.1876 38.1609 50.4794 36.8444L48.3731 35.7913L46.6805 37.8976C45.4392 39.4022 45.1007 40.0792 45.364 40.4177C46.1915 41.4333 49.7648 42.7874 52.6234 43.2011C59.2057 44.1414 63.6441 41.7342 64.0202 37.0701C64.2835 33.4969 62.0267 31.3905 56.648 30.2245C53.2252 29.4722 52.6234 29.1713 52.9619 28.3062C53.3004 27.4035 56.6104 27.7044 58.8296 28.7952C59.7323 29.2465 60.4846 29.5475 60.5222 29.5098C60.5598 29.4722 61.1992 28.5695 61.9515 27.5163C62.7038 26.4255 63.3432 25.3724 63.3432 25.1467C63.3432 24.8834 62.3652 24.244 61.1992 23.6798C59.4314 22.8899 58.3406 22.6642 55.4444 22.589C53.0371 22.5137 51.4197 22.6266 50.4418 23.0027Z" fill="white"/>
<path d="M113.031 32.6323C110.736 38.1991 108.855 42.8632 108.855 42.976C108.855 43.0888 110.435 43.1641 112.354 43.1641H115.889L116.491 41.6595L117.055 40.155H120.516H123.976L124.54 41.6595L125.142 43.1641H128.678C130.596 43.1641 132.176 43.0136 132.176 42.8632C132.176 42.6751 130.37 38.2367 128.189 32.9708C126.007 27.705 124.127 23.1914 124.014 22.9281C123.863 22.6272 122.81 22.4767 120.516 22.4767H117.243L113.031 32.6323ZM121.381 32.7452C121.682 33.6103 122.058 34.6258 122.208 34.9643C122.434 35.5662 122.246 35.6414 120.516 35.6414C119.124 35.6414 118.635 35.5285 118.748 35.1524C118.861 34.9267 119.237 33.8359 119.613 32.7452C119.989 31.6544 120.403 30.8645 120.553 30.9397C120.704 31.0526 121.08 31.8424 121.381 32.7452Z" fill="white"/>
<path d="M65.9761 33.0084V43.1641H74.4391H82.9021V40.3431V37.5221H77.6362H72.3703V36.3937V35.2653H77.2601H82.1498V32.8204V30.3755H77.2601H72.3703V29.2471V28.1187H77.6362H82.9021V25.4858V22.8528H74.4391H65.9761V33.0084Z" fill="white"/>
<path d="M85.1592 33.0084V43.1641H88.3563H91.5158L91.6287 38.1615L91.7415 33.1965L94.0736 36.7322L96.368 40.2678L98.5872 36.845C99.7908 34.9267 100.882 33.3846 101.07 33.3846C101.22 33.3846 101.333 35.5662 101.333 38.2743V43.1641H104.53H107.727V33.0084V22.8528H104.192H100.656L98.6624 26.238C97.5716 28.0811 96.556 29.6232 96.4056 29.6232C96.2551 29.6232 95.2396 28.0811 94.1488 26.238L92.1553 22.8528H88.6572H85.1592V33.0084Z" fill="white"/>
<path d="M133.304 33.0084V43.1641H136.69H140.075V39.4027V35.6038L143.197 35.7166L146.281 35.8295L146.394 39.478L146.507 43.1641H149.666H152.863V33.0084V22.8528H149.666H146.507L146.394 26.3133L146.281 29.8113L143.197 29.9242L140.075 30.037V26.4261V22.8528H136.69H133.304V33.0084Z" fill="white"/>
<path d="M161.89 33.1965V43.1641H165.087H168.247L168.36 38.1615L168.472 33.1965L170.654 36.6569C171.895 38.5752 172.948 40.155 173.024 40.155C173.099 40.155 174.19 38.5752 175.431 36.6569L177.688 33.1965V38.1615V43.1641H181.073H184.458V33.1965V23.229H180.885H177.312L176.296 24.9216C175.694 25.8243 174.754 27.3664 174.19 28.3444L173.099 30.1122L171.03 26.6894L168.924 23.229H165.426H161.89V33.1965Z" fill="white"/>
<path d="M207.779 33.1965V43.1641H210.976H214.135L214.248 39.478L214.361 35.8295H217.37H220.379L220.492 39.478L220.605 43.1641H223.764H226.962V33.1965V23.229H223.764H220.567V26.6142V29.9994H217.37H214.173V26.6142V23.229H210.976H207.779V33.1965Z" fill="white"/>
<path d="M294.29 25.1088C294.29 26.8766 294.214 26.9895 293.349 26.9895C292.447 26.9895 292.409 27.0647 292.409 29.4344C292.409 31.804 292.447 31.8792 293.349 31.8792C294.29 31.8792 294.29 31.8792 294.29 35.4901C294.29 41.245 295.493 42.7871 300.044 42.7871C301.399 42.7871 302.941 42.6367 303.467 42.411C304.37 42.0725 304.445 41.8844 304.445 39.6276V37.1827L303.129 37.4084C301.173 37.7093 300.684 37.1075 300.684 34.2865V31.8792H302.565H304.445V29.4344V26.9895H302.565H300.684V25.1088V23.2281H297.487H294.29V25.1088Z" fill="white"/>
<path d="M262.13 27.0653C258.783 28.2313 256.902 31.0523 256.902 34.8889C256.902 37.9732 257.955 40.1171 260.137 41.5465C261.415 42.4116 262.205 42.5996 264.5 42.7501C267.885 42.9005 269.615 42.4492 271.308 40.8694L272.624 39.7034L271.684 38.9511C269.277 37.0329 269.314 37.0329 267.659 37.898C266.644 38.4245 265.816 38.6126 265.252 38.4622C264.274 38.1613 263.07 37.1833 263.07 36.6943C263.07 36.5439 265.29 36.3934 267.96 36.3934H272.85V34.8513C272.85 28.9836 267.584 25.147 262.13 27.0653ZM265.929 31.4285C266.155 31.5789 266.531 32.0679 266.794 32.5192C267.246 33.3844 267.208 33.3844 264.989 33.3844C262.995 33.3844 262.732 33.3091 262.958 32.7073C263.484 31.2404 264.801 30.6386 265.929 31.4285Z" fill="white"/>
<path d="M309.448 27.5163C306.627 28.8327 305.423 30.7886 305.273 34.3619C305.085 38.1232 306.025 40.1168 308.733 41.6965C310.539 42.7497 310.877 42.8249 313.924 42.7121C316.82 42.5992 317.347 42.4864 318.776 41.4708C319.641 40.8314 320.431 40.1544 320.506 39.9287C320.581 39.703 319.942 38.9884 319.114 38.3113L317.572 37.1077L315.917 37.8976C314.826 38.4242 313.961 38.6122 313.397 38.4618C312.419 38.1609 311.216 37.1829 311.216 36.6939C311.216 36.5435 313.435 36.393 316.105 36.393H320.995V34.3995C320.957 28.3062 315.165 24.8833 309.448 27.5163ZM314.751 31.9547C315.09 32.406 315.353 32.9326 315.353 33.0831C315.353 33.2711 314.337 33.384 313.096 33.384C310.839 33.384 310.802 33.384 311.253 32.5189C312.118 30.9015 313.811 30.6006 314.751 31.9547Z" fill="white"/>
<path d="M283.908 27.3664C283.269 27.5545 282.441 28.0811 282.065 28.4948C281.162 29.5104 280.749 29.4352 280.749 28.3068C280.749 27.3664 280.711 27.3664 277.74 27.3664H274.73V35.2653V43.1641H277.702H280.673L280.824 38.4248C280.937 34.2497 281.012 33.6479 281.651 33.1589C282.065 32.858 282.592 32.6323 282.817 32.6323C283.043 32.6323 283.57 32.858 283.983 33.1589C284.623 33.6479 284.698 34.2497 284.811 38.4248L284.961 43.1641H288.158H291.356L291.205 37.0331C291.055 30.4884 290.791 29.36 289.024 28.0811C287.858 27.216 285.45 26.9151 283.908 27.3664Z" fill="white"/>
<path d="M322.875 35.2653V43.1641H326.073H329.27V40.155C329.27 35.7542 330.361 34.1369 333.257 34.1369C334.16 34.1369 334.16 34.0992 334.16 30.7516V27.3664H332.993C332.166 27.3664 331.451 27.7426 330.549 28.6453L329.27 29.9242V28.6453V27.3664H326.073H322.875V35.2653Z" fill="white"/>
<path d="M23.2978 27.702C23.2978 34.6071 19.1648 39.0446 12.9004 39.0446C6.63611 39.0446 1.55786 33.9663 1.55786 27.702C1.55786 21.4376 6.63611 16.3594 12.9004 16.3594C19.1648 16.3594 23.2978 21.7548 23.2978 27.702Z" fill="#9AC4E3"/>
<path d="M18.5025 0.161297C15.8185 0.684692 13.5353 2.95274 12.9079 5.74418C12.629 6.94799 12.6813 9.72198 12.995 10.8037C13.4482 12.339 13.8142 12.8798 15.7139 14.9036C18.0319 17.3636 18.729 18.2184 19.9665 20.1201C21.2388 22.0741 22.2671 24.5864 22.5285 26.3485C22.8771 28.7736 22.1973 30.7974 20.4196 32.5944C16.5679 36.45 11.1476 36.3803 6.54643 32.4025C5.09985 31.1638 3.35699 28.4247 2.53784 26.1392L1.9627 24.5166L1.43984 25.6332C-1.17446 31.1986 -0.215884 36.5373 4.21099 40.9687C7.27843 44.0393 10.8687 45.6793 15.1562 45.9584C23.1211 46.4818 30.6328 42.0329 34.4845 34.5135C36.7677 30.0821 37.7437 25.0226 37.2731 20.0503C36.942 16.3866 36.1925 13.787 34.5717 10.542C31.574 4.57526 27.8268 1.26043 22.9468 0.248528C21.5351 -0.0480614 19.7225 -0.0829544 18.5025 0.161297Z" fill="white"/>
</svg>
